# xmcd
#
# Track frame offsets: 
#        150
#        30769
#        51911
#        65606
#        86174
#        113437
#        140081
#        152430
#        166391
#        192247
#        213308
#        235753
#        252490
#        271908
#
# Disc length: 3816 seconds
#
# Revision: 2
# Processed by: cddbd v1.5.1PL0 Copyright (c) Steve Scherf et al.
# Submitted via: ExactAudioCopy v0.95a5
#
DISCID=bb0ee60e
DTITLE=Hans Theessink - Songs from the Southland
DYEAR=2003
DGENRE=Blues
TTITLE0=St. James Infirmery
TTITLE1=My Girl
TTITLE2=Mercury Blues
TTITLE3=A Hundred And Ten In The Shade
TTITLE4=From Four Til Late
TTITLE5=61 Highway
TTITLE6=He Was A Friend Of Mine
TTITLE7=Green Green Rocky Road
TTITLE8=Hard Time Killing Floor
TTITLE9=M and O Blues
TTITLE10=Rained Five Days
TTITLE11=I'm So Lonesome I Could Cry
TTITLE12=Hesitation Blues
TTITLE13=Frankie and Albert
EXTD=
EXTT0=
EXTT1=
EXTT2=
EXTT3=
EXTT4=
EXTT5=
EXTT6=
EXTT7=
EXTT8=
EXTT9=
EXTT10=
EXTT11=
EXTT12=
EXTT13=
PLAYORDER=
